<svg width="448" height="449" viewBox="0 0 448 449" fill="none" xmlns="http://www.w3.org/2000/svg">
<path d="M224.629 449C221.511 449 218.319 449 215.201 449C159.051 446.948 105.734 423.693 65.8839 383.872C26.0339 344.051 2.58016 290.591 0.200532 234.156C-2.17909 177.721 16.6903 122.458 53.0452 79.3893C89.4 36.3209 140.568 8.61266 196.344 1.79115L197.458 10.4487C143.749 16.8861 94.4379 43.4732 59.3903 84.891C24.3428 126.309 6.14307 179.503 8.4323 233.831C10.7215 288.16 33.3309 339.616 71.7371 377.905C110.143 416.195 161.514 438.494 215.572 440.342C220.175 440.342 224.852 440.342 229.529 440.342V406.757H233.687C280.041 404.26 323.679 383.989 355.614 350.118C387.549 316.247 405.349 271.355 405.349 224.687C405.349 178.018 387.549 133.126 355.614 99.2555C323.679 65.3846 280.041 45.1133 233.687 42.6161V33.8839C282.006 36.3433 327.574 57.2364 361.101 92.304C394.627 127.372 413.588 173.974 414.118 222.61C414.648 271.246 396.708 318.254 363.954 354.052C331.2 389.85 286.099 411.742 237.844 415.265V448.851H233.687C230.94 448.925 227.747 449 224.629 449Z" fill="white"/>
<path d="M252.915 447.209L251.801 438.551C305.959 431.642 355.463 404.245 390.236 361.936C425.01 319.628 442.439 265.587 438.976 210.815C435.514 156.043 411.42 104.655 371.599 67.1125C331.777 29.5697 279.222 8.69316 224.629 8.73225H219.73V42.2431H215.572C169.217 44.7403 125.579 65.0115 93.6448 98.8824C61.7102 132.753 43.9101 177.645 43.9101 224.313C43.9101 270.982 61.7102 315.874 93.6448 349.745C125.579 383.615 169.217 403.887 215.572 406.384L215.127 415.34C166.807 412.881 121.239 391.988 87.7126 356.92C54.1861 321.852 35.2251 275.25 34.695 226.614C34.1648 177.978 52.1053 130.97 84.8593 95.1719C117.613 59.374 162.715 37.482 210.969 33.9587V0.373211L215.127 3.95284e-05H224.555C281.351 -0.0338227 336.026 21.6897 377.453 60.7497C418.88 99.8098 443.946 153.271 447.55 210.254C451.154 267.237 433.025 323.459 396.853 367.48C360.681 411.5 309.183 440.011 252.84 447.209H252.915Z" fill="white"/>
<path d="M159.967 233.232V302.194L223.516 342.348V272.938L159.967 233.232Z" fill="white"/>
<path d="M276.523 149.269V302.194L223.516 342.348V106.578L276.523 149.269Z" fill="white"/>
<path d="M200.205 258.384L223.516 342.348V272.49L200.205 258.384Z" fill="#EEF4F7"/>
</svg>
